{"glyphs":{":":{"x_min":0,"x_max":833,"ha":833,"o":"m 8 488 l 13 488 l 13 438 l 8 438 z m 8 163 l 8 212 l 13 212 l 13 163 z"},"$":{"x_min":0,"x_max":289,"ha":289,"o":"m 228 186 l 228 179 q 225 119 196 84 q 167 50 119 49 l 119 0 l 114 0 l 114 49 q 5 51 5 189 l 5 192 l 10 192 l 10 189 q 10 120 37 87 q 62 55 114 53 l 114 318 q 111 320 108 322 q 104 324 100 326 q 87 332 70 342 q 54 351 40 366 q 25 381 15 403 q 5 425 5 456 l 5 458 l 5 460 q 6 523 35 560 q 64 598 114 599 l 114 648 l 119 648 l 119 599 q 228 597 228 458 l 228 456 l 223 456 l 223 458 q 223 526 196 561 q 169 594 119 594 l 119 321 q 122 319 125 318 q 128 316 132 314 q 144 308 160 300 q 176 291 190 276 q 205 262 216 242 q 226 221 228 192 z m 102 330 q 105 328 108 327 q 112 326 114 324 l 114 594 q 66 593 38 556 q 10 520 10 458 q 10 427 20 406 q 29 384 43 370 q 57 355 73 346 q 89 336 102 330 z m 119 53 q 166 55 194 90 q 222 125 223 185 q 223 215 213 236 q 203 257 189 271 q 175 285 159 294 q 143 304 130 310 q 122 314 119 316 z"},"?":{"x_min":0,"x_max":259,"ha":259,"o":"m 230 496 q 230 494 230 494 q 231 493 231 492 q 231 491 230 490 q 230 490 230 489 l 230 486 q 228 452 217 424 q 206 395 191 372 q 176 350 160 332 q 144 315 133 304 l 121 292 q 110 280 104 260 q 99 241 97 218 q 95 195 95 170 q 95 146 95 124 l 95 102 l 95 99 l 90 99 l 90 102 l 90 124 q 90 146 90 171 q 90 196 92 220 q 95 243 101 263 q 107 283 118 295 q 120 297 123 300 q 126 303 129 307 q 141 319 157 336 q 173 354 188 377 q 203 400 214 429 q 225 458 226 492 q 225 523 218 550 q 212 577 199 597 q 170 643 119 643 q 67 643 40 604 q 13 565 13 488 l 13 486 l 8 486 l 8 488 q 8 566 36 606 q 64 647 119 647 q 173 647 203 599 q 228 559 230 499 z m 90 16 l 95 16 l 95 0 l 90 0 z"},"<":{"x_min":0,"x_max":833,"ha":833,"o":""},"'":{"x_min":0,"x_max":49,"ha":49,"o":"m 1 640 l 6 640 l 6 578 l 1 578 z"},"=":{"x_min":0,"x_max":283,"ha":283,"o":"m 228 411 l 10 411 l 10 416 l 228 416 z m 228 211 l 10 211 l 10 216 l 228 216 z"},"a":{"x_min":0,"x_max":372,"ha":372,"o":"m 11 0 l 6 0 l 156 647 l 160 647 l 310 0 l 305 0 l 257 205 l 58 205 z m 158 634 l 60 210 l 256 210 z"},"L":{"x_min":0,"x_max":267,"ha":267,"o":"m 10 5 l 237 5 l 237 0 l 6 0 l 6 648 l 10 648 l 10 5 z"},"3":{"x_min":0,"x_max":275,"ha":275,"o":"m 227 479 q 225 435 210 406 q 194 378 178 362 q 164 347 146 337 q 128 327 110 323 q 128 319 146 309 q 164 299 178 284 q 194 268 210 240 q 225 212 227 167 l 227 160 l 227 153 q 225 123 218 96 q 212 69 199 49 q 168 0 116 0 q 60 0 32 42 q 4 86 4 165 l 4 167 l 9 167 l 9 165 q 9 85 36 45 q 63 5 116 5 q 166 5 195 52 q 208 72 215 100 q 222 128 222 160 q 221 206 206 235 q 191 264 175 281 q 156 299 134 310 q 111 321 89 321 l 87 321 l 43 321 l 43 325 l 89 325 q 106 325 129 334 q 152 343 172 362 q 192 382 206 412 q 221 443 222 486 q 222 551 195 595 q 166 643 116 643 q 63 643 36 602 q 9 561 9 481 l 9 479 l 4 479 l 4 481 q 4 647 116 647 q 169 647 199 597 q 212 577 218 550 q 225 524 227 493 l 227 486 l 227 479 z"},";":{"x_min":0,"x_max":69,"ha":69,"o":"m 6 488 l 11 488 l 11 438 l 6 438 z m 6 127 l 6 212 l 11 212 l 11 127 z"},"J":{"x_min":0,"x_max":308,"ha":308,"o":"m 247 647 l 247 151 q 247 76 217 37 q 187 0 126 0 q 66 0 36 37 q 6 76 6 151 l 6 154 l 11 154 l 11 151 q 11 78 40 40 q 70 4 126 4 q 183 4 213 40 q 242 78 242 151 l 242 647 z"},"V":{"x_min":0,"x_max":380,"ha":380,"o":"m 330 648 l 335 648 l 173 0 l 170 0 l 7 648 l 12 648 l 171 13 l 330 648 z"},"\"":{"x_min":0,"x_max":125,"ha":125,"o":"m 1 578 l 1 640 l 6 640 l 6 578 z m 61 640 l 66 640 l 66 578 l 61 578 z"},"7":{"x_min":0,"x_max":352,"ha":352,"o":"m 13 647 l 324 647 l 324 643 l 55 -1 l 50 -1 l 318 642 l 13 642 l 13 647 z"},"S":{"x_min":0,"x_max":320,"ha":320,"o":"m 266 164 l 266 161 q 266 160 267 160 q 267 159 266 158 q 266 157 266 156 l 266 153 q 264 89 234 48 q 199 0 136 0 q 70 0 38 41 q 5 81 5 164 l 5 167 l 9 167 l 9 164 q 9 84 41 44 q 73 4 136 4 q 193 4 226 46 q 260 88 262 159 q 261 198 247 225 q 233 252 214 270 q 194 288 174 298 q 154 308 142 313 l 127 320 q 112 326 92 336 q 71 347 52 366 q 5 410 5 479 l 5 482 l 5 484 q 6 559 41 603 q 76 647 136 647 q 267 647 267 482 l 267 479 l 262 479 l 262 482 q 262 562 230 603 q 198 643 136 643 q 78 643 44 599 q 9 555 9 482 q 9 442 22 415 q 36 388 54 370 q 73 352 94 341 q 114 330 129 324 l 143 318 q 155 313 175 303 q 195 293 214 276 q 234 258 249 232 q 264 205 266 167 z"},"}":{"x_min":0,"x_max":833,"ha":833,"o":""},"Z":{"x_min":0,"x_max":376,"ha":376,"o":"m 13 4 l 313 4 l 313 0 l 8 0 l 8 5 l 307 643 l 7 643 l 7 647 l 312 647 l 312 642 l 13 4 z"},"x":{"x_min":0,"x_max":364,"ha":364,"o":"m 8 0 l 161 324 l 8 647 l 13 647 l 164 329 l 313 647 l 318 647 l 166 324 l 319 0 l 314 0 l 164 318 l 14 0 l 8 0 z"},")":{"x_min":0,"x_max":101,"ha":101,"o":"m 4 4 l 6 5 q 13 10 20 18 q 26 25 34 36 q 41 48 49 65 q 64 97 78 158 q 93 220 93 323 q 93 425 78 488 q 64 550 49 583 q 41 600 34 612 q 26 623 20 631 q 13 639 6 644 l 4 645 l 6 649 l 8 648 q 9 647 22 634 q 36 621 53 585 q 69 552 84 489 q 98 426 98 323 q 98 271 94 230 q 90 189 84 157 q 77 125 69 102 q 61 78 53 62 q 36 27 22 14 q 9 2 8 1 l 6 0 z"},"&":{"x_min":0,"x_max":380,"ha":380,"o":"m 140 0 q 78 2 41 45 q 24 65 14 93 q 5 121 5 153 q 5 184 12 207 q 20 230 32 248 q 45 267 62 282 q 78 298 96 313 q 107 322 118 332 q 129 341 140 352 q 136 357 125 374 q 114 392 102 416 q 90 441 80 469 q 71 497 71 524 q 71 587 87 616 q 104 648 143 648 q 186 648 202 610 q 210 591 212 568 q 214 544 214 524 q 214 478 202 446 q 191 413 179 393 q 168 375 158 364 q 149 354 146 351 l 296 94 q 297 96 297 97 q 297 98 298 100 q 317 142 322 190 q 327 239 327 275 l 327 278 l 332 278 l 332 275 q 332 238 327 190 q 322 141 303 98 q 301 96 300 94 q 300 91 298 89 l 350 0 l 345 0 l 296 85 q 250 1 145 0 l 143 0 z m 76 524 q 76 498 85 470 q 94 443 106 419 q 117 395 128 378 q 139 361 143 355 q 147 359 158 372 q 169 384 180 405 q 191 426 200 456 q 209 485 209 524 q 209 547 207 568 q 205 590 198 606 q 191 623 178 633 q 165 643 143 643 q 108 643 92 615 q 76 587 76 524 z m 10 153 q 10 87 46 46 q 83 5 143 5 q 248 5 293 89 l 142 348 q 131 337 120 328 q 110 318 99 309 q 81 294 65 279 q 49 264 36 246 q 24 228 17 206 q 10 183 10 153 z"},"_":{"x_min":0,"x_max":409,"ha":409,"o":"m 384 -5 l 7 -5 l 7 0 l 384 0 l 384 -5 l 384 -5 z"},"v":{"x_min":0,"x_max":380,"ha":380,"o":"m 330 648 l 335 648 l 173 0 l 170 0 l 7 648 l 12 648 l 171 13 l 330 648 z"},"O":{"x_min":0,"x_max":332,"ha":332,"o":"m 134 0 q 3 0 3 165 l 3 483 q 3 647 134 647 q 264 647 264 483 l 264 165 q 264 0 134 0 z m 134 643 q 72 643 40 603 q 8 563 8 483 l 8 165 q 8 85 40 44 q 72 4 134 4 q 196 4 227 44 q 259 85 259 165 l 259 483 q 259 563 227 603 q 196 643 134 643 z"},"(":{"x_min":0,"x_max":115,"ha":115,"o":"m 90 0 l 88 1 q 87 2 74 14 q 60 27 43 62 q 28 94 14 156 q -1 219 -1 323 q -1 426 14 489 q 28 552 43 585 q 60 621 74 634 q 87 647 88 648 l 90 649 l 93 645 l 91 644 q 84 639 77 631 q 71 623 63 612 q 55 600 47 583 q 32 550 18 488 q 4 425 4 323 q 4 220 18 158 q 32 97 47 65 q 55 48 63 36 q 71 25 77 18 q 84 10 91 5 l 93 4 z"},"C":{"x_min":0,"x_max":324,"ha":324,"o":"m 260 480 l 260 482 q 260 563 229 603 q 197 643 135 643 q 73 643 42 603 q 10 562 10 482 l 10 480 l 10 166 q 10 4 135 4 q 260 4 260 166 l 260 168 l 265 168 l 265 166 q 265 2 138 0 l 135 0 l 133 0 q 5 2 5 166 l 5 480 l 5 482 l 5 485 q 6 645 133 647 l 135 647 l 138 647 q 265 645 265 482 l 265 480 z"},"W":{"x_min":0,"x_max":639,"ha":639,"o":"m 574 648 l 579 648 l 436 0 l 432 0 l 292 635 l 152 0 l 149 0 l 6 648 l 11 648 l 150 14 l 290 648 l 294 648 l 434 14 l 574 648 z"},"A":{"x_min":0,"x_max":372,"ha":372,"o":"m 11 0 l 6 0 l 156 647 l 160 647 l 310 0 l 305 0 l 257 205 l 58 205 z m 158 634 l 60 210 l 256 210 z"},"f":{"x_min":0,"x_max":255,"ha":255,"o":"m 221 643 l 10 643 l 10 326 l 221 326 l 221 322 l 10 322 l 10 0 l 6 0 l 6 322 l 6 326 l 6 647 l 221 647 l 221 643 z"},"Q":{"x_min":0,"x_max":340,"ha":340,"o":"m 268 -26 l 221 30 q 189 0 136 0 q 6 0 6 169 l 6 485 q 6 568 39 607 q 70 647 136 647 q 202 647 233 607 q 266 568 266 485 l 266 169 q 266 77 225 34 l 274 -26 z m 136 4 q 187 4 219 34 l 174 88 l 180 88 l 222 37 q 224 39 226 42 q 227 44 229 46 q 261 89 261 169 l 261 485 q 261 643 136 643 q 11 643 11 485 l 11 169 q 11 87 42 46 q 73 4 136 4 z"},"w":{"x_min":0,"x_max":639,"ha":639,"o":"m 574 648 l 579 648 l 436 0 l 432 0 l 292 635 l 152 0 l 149 0 l 6 648 l 11 648 l 150 14 l 290 648 l 294 648 l 434 14 l 574 648 z"},"-":{"x_min":0,"x_max":233,"ha":233,"o":"m 228 321 l 10 321 l 10 326 l 228 326 l 228 321 l 228 321 z"},"E":{"x_min":0,"x_max":259,"ha":259,"o":"m 219 643 l 8 643 l 8 326 l 219 326 l 219 322 l 8 322 l 8 4 l 219 4 l 219 0 l 4 0 l 4 322 l 4 326 l 4 647 l 219 647 l 219 643 z"},"s":{"x_min":0,"x_max":320,"ha":320,"o":"m 266 164 l 266 161 q 266 160 267 160 q 267 159 266 158 q 266 157 266 156 l 266 153 q 264 89 234 48 q 199 0 136 0 q 70 0 38 41 q 5 81 5 164 l 5 167 l 9 167 l 9 164 q 9 84 41 44 q 73 4 136 4 q 193 4 226 46 q 260 88 262 159 q 261 198 247 225 q 233 252 214 270 q 194 288 174 298 q 154 308 142 313 l 127 320 q 112 326 92 336 q 71 347 52 366 q 5 410 5 479 l 5 482 l 5 484 q 6 559 41 603 q 76 647 136 647 q 267 647 267 482 l 267 479 l 262 479 l 262 482 q 262 562 230 603 q 198 643 136 643 q 78 643 44 599 q 9 555 9 482 q 9 442 22 415 q 36 388 54 370 q 73 352 94 341 q 114 330 129 324 l 143 318 q 155 313 175 303 q 195 293 214 276 q 234 258 249 232 q 264 205 266 167 z"},">":{"x_min":0,"x_max":833,"ha":833,"o":""},"l":{"x_min":0,"x_max":267,"ha":267,"o":"m 10 5 l 237 5 l 237 0 l 6 0 l 6 648 l 10 648 l 10 5 z"},"8":{"x_min":0,"x_max":303,"ha":303,"o":"m 248 490 l 248 485 l 248 479 l 248 477 q 245 401 219 365 q 197 332 154 324 q 196 316 219 283 q 245 245 248 171 l 248 168 l 248 163 l 248 157 l 248 155 q 245 79 219 43 q 189 0 128 0 l 126 0 l 124 0 q 63 0 33 43 q 7 79 4 155 l 4 157 l 4 163 l 4 168 l 4 171 q 7 245 33 283 q 56 316 98 324 q 55 332 33 365 q 7 401 4 477 l 4 479 l 4 485 l 4 490 l 4 492 q 7 567 33 605 q 63 647 124 647 l 126 647 l 128 647 q 189 647 219 605 q 245 567 248 492 z m 243 163 q 242 244 214 283 q 186 322 126 322 q 66 322 38 283 q 10 244 9 163 q 10 82 38 44 q 66 5 126 5 q 186 5 214 44 q 242 82 243 163 z m 126 326 q 186 326 214 365 q 242 404 243 485 q 242 643 126 643 q 10 643 9 485 q 10 404 38 365 q 66 326 126 326 z"},"\\":{"x_min":0,"x_max":299,"ha":299,"o":"m 253 0 l 248 0 l 10 647 l 15 647 l 253 0 z"},"e":{"x_min":0,"x_max":259,"ha":259,"o":"m 219 643 l 8 643 l 8 326 l 219 326 l 219 322 l 8 322 l 8 4 l 219 4 l 219 0 l 4 0 l 4 322 l 4 326 l 4 647 l 219 647 l 219 643 z"},"b":{"x_min":0,"x_max":291,"ha":291,"o":"m 241 490 l 241 485 l 241 479 l 241 477 q 238 404 209 364 q 182 331 136 324 q 181 317 209 283 q 238 243 241 170 l 241 168 l 241 162 l 241 157 l 241 154 q 239 116 231 89 q 223 62 209 42 q 174 0 105 0 l 12 0 l 8 0 l 8 4 l 8 322 l 8 326 l 8 647 l 105 647 q 174 647 209 605 q 223 585 231 558 q 239 531 241 493 z m 18 322 l 12 322 l 12 4 l 105 4 q 235 4 236 162 q 235 244 203 283 q 171 322 105 322 z m 105 326 q 171 326 203 365 q 235 404 236 485 q 235 643 105 643 l 12 643 l 12 326 l 18 326 z"},"%":{"x_min":0,"x_max":451,"ha":451,"o":"m 342 287 q 376 286 392 262 q 408 238 408 209 l 408 123 q 408 94 392 70 q 376 46 342 45 l 339 45 l 337 45 q 302 46 286 70 q 271 94 271 123 l 271 207 l 271 209 l 271 212 q 272 240 288 263 q 303 286 337 287 l 337 288 l 339 288 l 342 288 z m 403 209 q 403 237 388 260 q 372 283 339 283 q 306 283 291 260 q 276 237 276 209 l 276 207 l 276 123 q 276 96 291 73 q 306 50 339 50 q 372 50 388 73 q 403 96 403 123 z m 95 358 l 92 358 q 58 360 42 384 q 26 408 26 437 l 26 520 l 26 523 l 26 525 q 27 554 43 577 q 59 600 92 601 l 95 601 l 97 601 q 132 600 148 576 q 163 552 163 523 l 163 437 q 163 408 148 384 q 132 360 97 358 z m 31 437 q 31 409 46 386 q 62 363 95 363 q 128 363 144 386 q 159 409 159 437 l 159 523 q 159 550 144 573 q 128 596 95 596 q 62 596 46 573 q 31 550 31 523 l 31 520 z m 340 648 l 102 0 l 97 0 l 335 648 z"},"m":{"x_min":0,"x_max":449,"ha":449,"o":"m 375 648 l 379 648 l 379 1 l 374 1 l 374 629 l 194 0 l 190 0 l 10 629 l 10 1 l 5 1 l 5 648 l 9 648 l 192 11 l 375 648 z"},"#":{"x_min":0,"x_max":508,"ha":508,"o":"m 105 0 l 149 226 l 6 226 l 6 231 l 150 231 l 186 416 l 38 416 l 38 420 l 187 420 l 232 648 l 236 648 l 192 420 l 361 420 l 405 648 l 410 648 l 365 420 l 489 420 l 489 416 l 364 416 l 328 231 l 457 231 l 457 226 l 327 226 l 283 0 l 278 0 l 323 226 l 154 226 l 109 0 z m 191 416 l 155 231 l 324 231 l 360 416 z"},",":{"x_min":0,"x_max":53,"ha":53,"o":"m 12 -40 l 7 -40 l 7 16 l 12 16 l 12 -40 l 12 -40 z"},"n":{"x_min":0,"x_max":344,"ha":344,"o":"m 264 648 l 269 648 l 269 0 l 265 0 l 10 634 l 10 1 l 5 1 l 5 648 l 9 648 l 264 15 l 264 648 z"},"h":{"x_min":0,"x_max":320,"ha":320,"o":"m 241 647 l 246 647 l 246 326 l 246 321 l 246 0 l 241 0 l 241 321 l 9 321 l 9 0 l 5 0 l 5 321 l 5 326 l 5 647 l 9 647 l 9 326 l 241 326 l 241 647 z"},"z":{"x_min":0,"x_max":376,"ha":376,"o":"m 13 4 l 313 4 l 313 0 l 8 0 l 8 5 l 307 643 l 7 643 l 7 647 l 312 647 l 312 642 l 13 4 z"},"B":{"x_min":0,"x_max":291,"ha":291,"o":"m 241 490 l 241 485 l 241 479 l 241 477 q 238 404 209 364 q 182 331 136 324 q 181 317 209 283 q 238 243 241 170 l 241 168 l 241 162 l 241 157 l 241 154 q 239 116 231 89 q 223 62 209 42 q 174 0 105 0 l 12 0 l 8 0 l 8 4 l 8 322 l 8 326 l 8 647 l 105 647 q 174 647 209 605 q 223 585 231 558 q 239 531 241 493 z m 18 322 l 12 322 l 12 4 l 105 4 q 235 4 236 162 q 235 244 203 283 q 171 322 105 322 z m 105 326 q 171 326 203 365 q 235 404 236 485 q 235 643 105 643 l 12 643 l 12 326 l 18 326 z"},"K":{"x_min":0,"x_max":316,"ha":316,"o":"m 292 0 l 287 0 l 88 349 l 9 235 l 9 1 l 5 1 l 5 648 l 9 648 l 9 243 l 85 354 l 85 354 l 86 355 l 286 648 l 291 648 l 91 353 l 292 0 z"},"R":{"x_min":0,"x_max":332,"ha":332,"o":"m 257 173 l 257 171 l 257 0 l 252 0 l 252 171 l 252 173 q 252 240 216 278 q 179 316 113 316 l 111 316 l 10 316 l 10 0 l 5 0 l 5 316 l 5 320 l 5 647 l 113 647 q 183 647 218 609 q 253 571 255 490 l 255 487 l 255 482 l 255 477 l 255 474 q 254 398 222 359 q 193 325 145 318 q 198 309 227 272 q 256 236 257 176 z m 113 320 q 183 320 216 360 q 250 399 251 483 q 250 562 218 601 q 183 643 113 643 l 10 643 l 10 320 l 111 320 z"},"T":{"x_min":0,"x_max":360,"ha":360,"o":"m 333 647 l 333 643 l 171 643 l 171 0 l 167 0 l 167 643 l 5 643 l 5 647 l 167 647 l 171 647 l 333 647 z"},"P":{"x_min":0,"x_max":312,"ha":312,"o":"m 256 490 q 256 488 256 487 q 257 486 257 485 q 257 484 256 483 q 256 482 256 480 l 256 477 q 255 403 223 364 q 187 321 114 321 l 10 321 l 10 0 l 6 0 l 6 647 l 114 647 q 187 647 223 605 q 255 567 256 493 z m 114 326 q 183 326 216 365 q 250 404 252 485 q 250 566 216 604 q 183 643 114 643 l 10 643 l 10 326 z"},"|":{"x_min":0,"x_max":89,"ha":89,"o":"m 18 0 l 13 0 l 13 647 l 18 647 l 18 0 l 18 0 z"},"t":{"x_min":0,"x_max":360,"ha":360,"o":"m 333 647 l 333 643 l 171 643 l 171 0 l 167 0 l 167 643 l 5 643 l 5 647 l 167 647 l 171 647 l 333 647 z"},"M":{"x_min":0,"x_max":449,"ha":449,"o":"m 375 648 l 379 648 l 379 1 l 374 1 l 374 629 l 194 0 l 190 0 l 10 629 l 10 1 l 5 1 l 5 648 l 9 648 l 192 11 l 375 648 z"},"g":{"x_min":0,"x_max":324,"ha":324,"o":"m 262 481 l 262 483 q 262 563 230 604 q 199 643 136 643 q 75 643 42 604 q 10 563 10 483 l 10 481 l 10 165 q 10 84 42 44 q 74 4 136 4 q 198 4 230 44 q 262 84 262 165 l 262 266 l 116 266 l 116 271 l 267 271 l 267 165 q 267 0 136 0 q 6 0 6 165 l 6 481 l 6 483 l 6 486 q 6 566 38 607 q 71 647 136 647 q 201 647 234 607 q 267 565 267 483 l 267 481 z"},"j":{"x_min":0,"x_max":308,"ha":308,"o":"m 247 647 l 247 151 q 247 76 217 37 q 187 0 126 0 q 66 0 36 37 q 6 76 6 151 l 6 154 l 11 154 l 11 151 q 11 78 40 40 q 70 4 126 4 q 183 4 213 40 q 242 78 242 151 l 242 647 z"},"i":{"x_min":0,"x_max":101,"ha":101,"o":"m 29 0 l 24 0 l 24 647 l 29 647 l 29 0 l 29 0 z"},"y":{"x_min":0,"x_max":372,"ha":372,"o":"m 344 647 l 350 647 l 171 323 l 171 0 l 166 0 l 166 323 l -13 647 l -7 647 l 168 328 l 344 647 z"},"@":{"x_min":0,"x_max":603,"ha":603,"o":"m 369 180 q 333 189 339 227 q 340 234 342 250 q 345 266 348 286 q 339 258 325 244 q 311 230 292 227 q 274 224 249 224 q 201 224 180 248 q 156 273 164 332 q 171 389 197 418 q 223 447 274 447 q 285 447 306 445 q 328 443 344 432 q 363 419 366 395 q 368 405 370 414 q 371 422 372 428 q 373 435 374 441 l 374 444 l 379 443 l 379 441 q 379 440 376 426 q 374 413 370 392 q 367 370 362 344 q 358 319 354 296 q 351 272 348 253 q 345 234 344 226 q 341 205 350 196 q 359 187 370 184 q 375 183 380 182 q 384 182 390 182 q 408 182 430 188 q 453 195 474 208 q 495 220 512 238 q 529 255 538 277 q 549 304 553 336 q 557 368 555 400 q 553 431 544 460 q 536 490 521 513 q 501 544 472 567 q 442 590 407 603 q 372 616 332 619 q 293 622 252 613 q 215 605 176 586 q 138 567 104 535 q 71 503 46 457 q 22 411 12 350 q -3 256 26 184 q 55 112 126 69 q 169 42 222 30 q 276 19 330 22 q 385 24 438 41 q 491 58 533 89 l 534 91 l 537 87 l 535 85 q 493 55 441 37 q 389 19 331 16 l 310 16 q 258 16 210 28 q 162 41 124 65 q 52 109 22 182 q -8 256 7 351 q 16 405 38 452 q 61 498 96 533 q 128 565 167 587 q 206 609 251 618 q 335 635 409 608 q 483 580 525 515 q 539 492 548 462 q 558 433 560 398 q 562 365 558 333 q 554 301 543 275 q 533 252 513 232 q 493 211 464 197 q 438 184 413 180 q 388 175 369 180 z m 249 229 q 273 229 290 232 q 308 234 321 247 q 334 260 343 286 q 352 312 360 359 q 365 392 358 406 q 352 421 341 428 q 331 435 314 439 q 296 443 274 443 q 227 443 202 416 q 176 389 169 332 q 162 275 183 251 q 202 229 249 229 z"},".":{"x_min":0,"x_max":61,"ha":61,"o":"m 13 0 l 8 0 l 8 16 l 13 16 l 13 0 l 13 0 z"},"p":{"x_min":0,"x_max":312,"ha":312,"o":"m 256 490 q 256 488 256 487 q 257 486 257 485 q 257 484 256 483 q 256 482 256 480 l 256 477 q 255 403 223 364 q 187 321 114 321 l 10 321 l 10 0 l 6 0 l 6 647 l 114 647 q 187 647 223 605 q 255 567 256 493 z m 114 326 q 183 326 216 365 q 250 404 252 485 q 250 566 216 604 q 183 643 114 643 l 10 643 l 10 326 z"},"X":{"x_min":0,"x_max":364,"ha":364,"o":"m 8 0 l 161 324 l 8 647 l 13 647 l 164 329 l 313 647 l 318 647 l 166 324 l 319 0 l 314 0 l 164 318 l 14 0 l 8 0 z"},"*":{"x_min":0,"x_max":223,"ha":223,"o":"m 218 564 l 116 526 l 192 440 l 188 437 l 112 524 l 35 437 l 31 440 l 108 526 l 5 564 l 7 569 l 109 531 l 109 640 l 114 640 l 114 531 l 216 569 l 218 564 z"},"Y":{"x_min":0,"x_max":372,"ha":372,"o":"m 344 647 l 350 647 l 171 323 l 171 0 l 166 0 l 166 323 l -13 647 l -7 647 l 168 328 l 344 647 z"},"c":{"x_min":0,"x_max":324,"ha":324,"o":"m 260 480 l 260 482 q 260 563 229 603 q 197 643 135 643 q 73 643 42 603 q 10 562 10 482 l 10 480 l 10 166 q 10 4 135 4 q 260 4 260 166 l 260 168 l 265 168 l 265 166 q 265 2 138 0 l 135 0 l 133 0 q 5 2 5 166 l 5 480 l 5 482 l 5 485 q 6 645 133 647 l 135 647 l 138 647 q 265 645 265 482 l 265 480 z"},"!":{"x_min":0,"x_max":49,"ha":49,"o":"m 4 648 l 9 648 l 9 98 l 4 98 z m 4 0 l 4 16 l 9 16 l 9 0 z"},"/":{"x_min":0,"x_max":299,"ha":299,"o":"m 11 0 l 6 0 l 244 647 l 249 647 l 11 0 z"},"[":{"x_min":0,"x_max":833,"ha":833,"o":""},"6":{"x_min":0,"x_max":279,"ha":279,"o":"m 5 239 l 5 240 l 5 441 q 5 542 32 594 q 60 646 114 647 l 116 647 l 119 647 q 171 647 200 607 q 228 567 228 498 l 228 496 l 223 496 l 223 498 q 223 568 196 606 q 168 643 116 643 q 64 643 37 592 q 10 541 10 441 l 10 292 q 20 344 48 374 q 75 403 116 403 q 228 403 228 239 l 228 165 q 228 90 198 45 q 167 0 116 0 q 62 0 33 38 q 5 75 5 142 z m 10 142 q 10 77 37 41 q 64 5 116 5 q 165 5 194 48 q 223 91 223 165 l 223 239 q 223 320 196 359 q 168 399 116 399 q 68 399 39 356 q 10 312 10 240 z"},"r":{"x_min":0,"x_max":332,"ha":332,"o":"m 257 173 l 257 171 l 257 0 l 252 0 l 252 171 l 252 173 q 252 240 216 278 q 179 316 113 316 l 111 316 l 10 316 l 10 0 l 5 0 l 5 316 l 5 320 l 5 647 l 113 647 q 183 647 218 609 q 253 571 255 490 l 255 487 l 255 482 l 255 477 l 255 474 q 254 398 222 359 q 193 325 145 318 q 198 309 227 272 q 256 236 257 176 z m 113 320 q 183 320 216 360 q 250 399 251 483 q 250 562 218 601 q 183 643 113 643 l 10 643 l 10 320 l 111 320 z"},"2":{"x_min":0,"x_max":291,"ha":291,"o":"m 232 5 l 232 0 l 230 0 l 121 0 l 9 0 l 9 2 q 9 42 17 76 q 25 110 40 142 q 54 174 74 206 q 94 238 119 275 q 129 289 138 302 q 147 315 156 328 q 171 347 184 365 q 196 383 206 404 q 215 424 221 447 q 227 470 227 500 q 226 566 198 604 q 169 643 121 643 q 66 643 41 607 q 14 569 14 496 l 14 493 l 9 493 l 9 496 q 9 647 121 647 q 169 647 199 610 q 229 572 232 507 l 232 500 l 232 493 q 231 464 225 442 q 219 419 209 400 q 199 380 186 362 q 174 344 160 325 q 151 312 142 300 q 132 287 122 272 q 97 234 77 202 q 57 171 43 140 q 29 109 22 76 q 14 44 14 5 l 121 5 l 230 5 z"},"{":{"x_min":0,"x_max":833,"ha":833,"o":""},"9":{"x_min":0,"x_max":291,"ha":291,"o":"m 226 409 l 226 407 l 226 206 q 226 106 198 54 q 171 1 117 0 l 114 0 l 112 0 q 59 2 31 40 q 3 78 3 150 l 3 152 l 8 152 l 8 150 q 8 79 36 42 q 63 5 114 5 q 167 5 194 56 q 221 106 221 206 l 221 355 q 211 303 184 274 q 156 244 114 244 q 3 244 3 409 l 3 483 q 3 558 33 602 q 63 647 114 647 q 170 647 198 609 q 226 570 226 505 z m 221 505 q 221 570 194 606 q 166 643 114 643 q 66 643 37 600 q 8 556 8 483 l 8 409 q 8 328 35 288 q 60 249 114 249 q 163 249 192 292 q 221 335 221 407 z"}," ":{"x_min":0,"x_max":210,"ha":210,"o":""},"I":{"x_min":0,"x_max":101,"ha":101,"o":"m 29 0 l 24 0 l 24 647 l 29 647 l 29 0 l 29 0 z"},"H":{"x_min":0,"x_max":320,"ha":320,"o":"m 241 647 l 246 647 l 246 326 l 246 321 l 246 0 l 241 0 l 241 321 l 9 321 l 9 0 l 5 0 l 5 321 l 5 326 l 5 647 l 9 647 l 9 326 l 241 326 l 241 647 z"},"4":{"x_min":0,"x_max":312,"ha":312,"o":"m 245 647 l 249 647 l 249 0 l 244 0 l 244 206 l 4 206 l 4 211 z m 244 210 l 244 636 l 9 210 z"},"~":{"x_min":0,"x_max":833,"ha":833,"o":""},"D":{"x_min":0,"x_max":303,"ha":303,"o":"m 214 604 q 248 563 248 479 l 248 168 q 248 84 214 43 q 178 0 106 0 l 4 0 l 4 647 l 106 647 q 178 647 214 604 z m 243 479 q 243 643 106 643 l 8 643 l 8 4 l 106 4 q 243 4 243 168 z"},"^":{"x_min":0,"x_max":833,"ha":833,"o":""},"0":{"x_min":0,"x_max":308,"ha":308,"o":"m 198 604 q 226 560 226 481 l 226 168 q 226 85 198 42 q 169 0 114 0 q 59 0 31 42 q 3 85 3 168 l 3 481 q 3 647 114 647 q 170 647 198 604 z m 221 481 q 221 561 194 602 q 167 643 114 643 q 62 643 35 602 q 8 561 8 481 l 8 168 q 8 86 35 46 q 62 5 114 5 q 167 5 194 46 q 221 86 221 168 z"},"F":{"x_min":0,"x_max":255,"ha":255,"o":"m 221 643 l 10 643 l 10 326 l 221 326 l 221 322 l 10 322 l 10 0 l 6 0 l 6 322 l 6 326 l 6 647 l 221 647 l 221 643 z"},"k":{"x_min":0,"x_max":316,"ha":316,"o":"m 292 0 l 287 0 l 88 349 l 9 235 l 9 1 l 5 1 l 5 648 l 9 648 l 9 243 l 85 354 l 85 354 l 86 355 l 286 648 l 291 648 l 91 353 l 292 0 z"},"u":{"x_min":0,"x_max":336,"ha":336,"o":"m 245 647 l 245 152 q 245 1 127 0 l 125 0 l 123 0 q 5 1 5 152 l 5 647 l 9 647 l 9 152 q 9 77 39 41 q 68 4 125 4 q 182 4 211 41 q 240 76 240 152 l 240 647 z"},"]":{"x_min":0,"x_max":833,"ha":833,"o":""},"U":{"x_min":0,"x_max":336,"ha":336,"o":"m 245 647 l 245 152 q 245 1 127 0 l 125 0 l 123 0 q 5 1 5 152 l 5 647 l 9 647 l 9 152 q 9 77 39 41 q 68 4 125 4 q 182 4 211 41 q 240 76 240 152 l 240 647 z"},"o":{"x_min":0,"x_max":332,"ha":332,"o":"m 134 0 q 3 0 3 165 l 3 483 q 3 647 134 647 q 264 647 264 483 l 264 165 q 264 0 134 0 z m 134 643 q 72 643 40 603 q 8 563 8 483 l 8 165 q 8 85 40 44 q 72 4 134 4 q 196 4 227 44 q 259 85 259 165 l 259 483 q 259 563 227 603 q 196 643 134 643 z"},"N":{"x_min":0,"x_max":344,"ha":344,"o":"m 264 648 l 269 648 l 269 0 l 265 0 l 10 634 l 10 1 l 5 1 l 5 648 l 9 648 l 264 15 l 264 648 z"},"+":{"x_min":0,"x_max":320,"ha":320,"o":"m 298 326 l 298 321 l 152 321 l 152 175 l 147 175 l 147 321 l 1 321 l 1 326 l 147 326 l 147 472 l 152 472 l 152 326 l 298 326 z"},"G":{"x_min":0,"x_max":324,"ha":324,"o":"m 262 481 l 262 483 q 262 563 230 604 q 199 643 136 643 q 75 643 42 604 q 10 563 10 483 l 10 481 l 10 165 q 10 84 42 44 q 74 4 136 4 q 198 4 230 44 q 262 84 262 165 l 262 266 l 116 266 l 116 271 l 267 271 l 267 165 q 267 0 136 0 q 6 0 6 165 l 6 481 l 6 483 l 6 486 q 6 566 38 607 q 71 647 136 647 q 201 647 234 607 q 267 565 267 483 l 267 481 z"},"q":{"x_min":0,"x_max":340,"ha":340,"o":"m 268 -26 l 221 30 q 189 0 136 0 q 6 0 6 169 l 6 485 q 6 568 39 607 q 70 647 136 647 q 202 647 233 607 q 266 568 266 485 l 266 169 q 266 77 225 34 l 274 -26 z m 136 4 q 187 4 219 34 l 174 88 l 180 88 l 222 37 q 224 39 226 42 q 227 44 229 46 q 261 89 261 169 l 261 485 q 261 643 136 643 q 11 643 11 485 l 11 169 q 11 87 42 46 q 73 4 136 4 z"},"d":{"x_min":0,"x_max":303,"ha":303,"o":"m 214 604 q 248 563 248 479 l 248 168 q 248 84 214 43 q 178 0 106 0 l 4 0 l 4 647 l 106 647 q 178 647 214 604 z m 243 479 q 243 643 106 643 l 8 643 l 8 4 l 106 4 q 243 4 243 168 z"},"1":{"x_min":0,"x_max":178,"ha":178,"o":"m 100 647 l 103 647 l 103 0 l 98 0 l 98 639 l 6 527 l 2 530 l 100 647 z"},"5":{"x_min":0,"x_max":287,"ha":287,"o":"m 12 643 l 12 286 q 22 336 50 364 q 77 393 118 393 q 230 393 230 234 l 230 162 q 230 129 223 100 q 216 70 202 49 q 171 0 118 0 q 63 0 35 42 q 7 82 7 162 l 7 165 l 12 165 l 12 162 q 12 84 39 44 q 66 5 118 5 q 169 5 198 51 q 225 95 225 162 l 225 234 q 225 312 198 350 q 171 388 118 388 q 70 388 41 346 q 12 305 12 234 l 12 232 l 12 230 l 7 230 l 7 232 l 7 234 l 7 647 l 12 647 l 230 647 l 230 643 z"}}}
